<svg id="Capa_1" enable-background="new 0 0 512.003 512.003" height="512" viewBox="0 0 512.003 512.003" width="512" xmlns="http://www.w3.org/2000/svg"><g><g><path d="m341.259 510.857c-5.596-2.314-9.258-7.793-9.258-13.857v-15h-317c-8.291 0-15-6.709-15-15v-240c0-8.291 6.709-15 15-15h317v-15c0-6.064 3.662-11.543 9.258-13.857 5.566-2.3 12.07-1.04 16.348 3.252l150 150c5.859 5.859 5.859 15.352 0 21.211l-150 150c-4.36 4.36-10.894 5.545-16.348 3.251z" fill="#ff73a5"/></g><path d="m.001 467c0 8.291 6.709 15 15 15h317v15c0 6.064 3.662 11.543 9.258 13.857 5.455 2.294 11.988 1.108 16.348-3.252l150-150c2.93-2.93 4.395-6.768 4.395-10.605h-512v120z" fill="#ff4081"/><g fill="#ffdb66"><path d="m77.001 120h-45v-105c0-8.291-8.709-15-17-15s-15 6.709-15 15v120c0 8.291 6.709 15 15 15h62c8.291 0 15-6.709 15-15s-6.709-15-15-15z"/><path d="m197.001 30c8.291 0 15-6.709 15-15s-6.709-15-15-15h-60c-8.291 0-15 6.709-15 15v120c0 8.291 6.709 15 15 15h60c8.291 0 15-6.709 15-15s-6.709-15-15-15h-45v-30h15c8.291 0 15-6.709 15-15s-6.709-15-15-15h-15v-30z"/><path d="m317.001 0h-60c-8.291 0-15 6.709-15 15s6.709 15 15 15h15v105c0 8.291 6.709 15 15 15s15-6.709 15-15v-105h15c8.291 0 15-6.709 15-15s-6.709-15-15-15z"/><path d="m467.001 60c-8.262 0-15-6.724-15-15 0-12.29 16.963-19.263 25.576-10.62 5.859 5.889 15.381 5.859 21.24.029 5.859-5.845 5.859-15.352.029-21.211-8.495-8.51-19.804-13.198-31.845-13.198-24.814 0-45 20.186-45 45s20.186 45 45 45c8.262 0 15 6.724 15 15 0 12.305-16.992 19.248-25.576 10.62-5.859-5.889-15.381-5.859-21.24-.029-5.859 5.845-5.859 15.352-.029 21.211 8.496 8.51 19.804 13.198 31.845 13.198 24.814 0 45-20.186 45-45s-20.185-45-45-45z"/><path d="m377.001 0c-8.291 0-15 6.709-15 15v30c0 8.291 6.709 15 15 15s15-6.709 15-15v-30c0-8.291-6.709-15-15-15z"/><path d="m197.001 332h-30c-8.291 0-15 6.709-15 15s6.709 15 15 15h15c0 16.538-13.447 30-30 30s-30-13.462-30-30v-30c0-16.538 13.447-30 30-30 7.998 0 15.527 3.12 21.211 8.789 5.859 5.859 15.352 5.859 21.211 0s5.859-15.352 0-21.211c-11.338-11.338-26.396-17.578-42.422-17.578-32.93 0-59.766 26.689-60 59.575v.205 30.22c0 33.091 26.924 60 60 60s60-26.909 60-60v-15c0-8.291-6.709-15-15-15z"/><path d="m287.001 272c-24.814 0-45 20.186-45 45v60c0 24.814 20.186 45 45 45s45-20.186 45-45v-60c0-24.814-20.185-45-45-45zm15 105c0 8.276-6.738 15-15 15s-15-6.724-15-15v-60c0-8.276 6.738-15 15-15s15 6.724 15 15z"/></g><g fill="#ffbc36"><path d="m167.001 362h15c0 16.538-13.447 30-30 30s-30-13.462-30-30v-15h-30v15c0 33.091 26.924 60 60 60s60-26.909 60-60v-15h-60c0 8.291 6.709 15 15 15z"/><path d="m302.001 347v30c0 8.276-6.738 15-15 15s-15-6.724-15-15v-30h-30v30c0 24.814 20.186 45 45 45s45-20.186 45-45v-30z"/></g></g></svg>