<svg height="512pt" viewBox="-1 0 512.00026 512" width="512pt" xmlns="http://www.w3.org/2000/svg"><path d="m471.027344 219.015625c-2.070313-6.074219-7.777344-10.15625-14.195313-10.15625l-149.886719.003906 114.464844-186.003906c3.796875-6.167969 2.640625-14.171875-2.75-19.015625-5.386718-4.84375-13.464844-5.140625-19.199218-.714844l-353.464844 273.132813c-5.078125 3.925781-7.097656 10.640625-5.023438 16.714843 2.074219 6.074219 7.777344 10.152344 14.195313 10.152344h149.890625l-114.464844 186.003906c-3.796875 6.171876-2.640625 14.171876 2.746094 19.015626 2.84375 2.554687 6.429687 3.847656 10.03125 3.847656 3.226562 0 6.457031-1.035156 9.167968-3.132813l353.464844-273.132812c5.078125-3.925781 7.097656-10.644531 5.023438-16.714844zm0 0" fill="#ffb64c"/><path d="m511.195312 378.34375c-2.074218-6.070312-7.777343-10.152344-14.195312-10.152344l-46.796875.003906 39.488281-64.167968c3.796875-6.171875 2.640625-14.175782-2.746094-19.019532-5.390624-4.839843-13.46875-5.144531-19.199218-.714843l-147.277344 113.808593c-5.078125 3.925782-7.097656 10.644532-5.027344 16.714844 2.074219 6.070313 7.78125 10.152344 14.199219 10.152344h46.792969l-39.488282 64.167969c-3.796874 6.167969-2.640624 14.171875 2.75 19.015625 2.839844 2.554687 6.429688 3.84375 10.027344 3.84375 3.226563 0 6.460938-1.035156 9.171875-3.128906l147.277344-113.808594c5.078125-3.921875 7.097656-10.640625 5.023437-16.714844zm0 0" fill="#ff5b5b"/><path d="m196.558594 97.179688c-2.070313-6.074219-7.777344-10.152344-14.195313-10.152344h-46.796875l39.488282-64.167969c3.796874-6.167969 2.640624-14.171875-2.746094-19.015625-5.390625-4.84375-13.46875-5.140625-19.199219-.714844l-147.28125 113.808594c-5.074219 3.921875-7.097656 10.640625-5.023437 16.714844 2.074218 6.070312 7.78125 10.152344 14.195312 10.152344h46.796875l-39.484375 64.164062c-3.796875 6.171875-2.644531 14.175781 2.746094 19.015625 2.839844 2.558594 6.429687 3.847656 10.027344 3.847656 3.226562 0 6.460937-1.035156 9.171874-3.132812l147.277344-113.804688c5.078125-3.925781 7.097656-10.640625 5.023438-16.714843zm0 0" fill="#ffb64c"/><path d="m471.027344 219.015625c-2.070313-6.074219-7.777344-10.15625-14.195313-10.15625l-149.886719.003906 114.464844-186.003906c3.796875-6.167969 2.640625-14.171875-2.75-19.015625-5.386718-4.84375-13.464844-5.140625-19.199218-.714844l-143.460938 110.859375v284.019531l210.003906-162.277343c5.078125-3.925781 7.097656-10.644531 5.023438-16.714844zm0 0" fill="#ff5b5b"/></svg>