<svg id="Layer_1" enable-background="new 0 0 512 512" height="512" viewBox="0 0 512 512" width="512" xmlns="http://www.w3.org/2000/svg"><g><path d="m51.15 425.766h-8.033c-7.272 0-13.117-5.894-13.117-13.117 0-7.232 5.884-13.117 13.117-13.117h20.083c8.284 0 15-6.716 15-15s-6.716-15-15-15h-20.083c-23.775.001-43.117 19.343-43.117 43.118 0 23.251 18.779 43.117 43.117 43.117h8.033c7.262 0 13.117 5.879 13.117 13.117 0 7.232-5.884 13.117-13.117 13.117h-20.083c-8.284 0-15 6.716-15 15s6.716 15 15 15h20.083c23.774 0 43.117-19.342 43.117-43.117 0-23.82-19.281-43.118-43.117-43.118z" fill="#2d3c5a"/><path d="m497 369.533h-64.267c-8.284 0-15 6.716-15 15s6.716 15 15 15h17.133v97.467c0 8.284 6.716 15 15 15s15-6.716 15-15v-97.467h17.134c8.284 0 15-6.716 15-15s-6.716-15-15-15z" fill="#212d49"/><path d="m407.567 416.666c0-25.989-21.144-47.133-47.134-47.133h-24.1c-8.284 0-15 6.716-15 15v112.467c0 8.284 6.716 15 15 15s15-6.716 15-15v-20.02l30.627 30.626c5.857 5.858 15.355 5.858 21.213 0s5.858-15.355 0-21.213l-25.738-25.739c13.158-5.079 30.132-19.665 30.132-43.988zm-47.134 17.134h-9.1v-34.267h9.1c9.448 0 17.134 7.686 17.134 17.133 0 9.334-7.546 17.134-17.134 17.134z" fill="#212d49"/><path d="m175.667 369.533h-64.267c-8.284 0-15 6.716-15 15s6.716 15 15 15h17.133v97.467c0 8.284 6.716 15 15 15s15-6.716 15-15v-97.467h17.133c8.284 0 15-6.716 15-15s-6.715-15-14.999-15z" fill="#2d3c5a"/><path d="m247.967 369.533c-25.989 0-47.133 21.144-47.133 47.133v80.334c0 8.284 6.716 15 15 15s15-6.716 15-15v-33.2h34.266v33.2c0 8.284 6.716 15 15 15s15-6.716 15-15v-80.333c0-25.99-21.144-47.134-47.133-47.134zm17.133 64.267h-34.267v-17.133c0-9.447 7.686-17.133 17.133-17.133s17.133 7.686 17.133 17.133v17.133z" fill="#2d3c5a"/><g><circle cx="256" cy="167.633" fill="#ff7564" r="167.633"/><path d="m423.633 167.633c0 92.433-75.2 167.633-167.633 167.633s-167.633-75.2-167.633-167.633z" fill="#ff3864"/><path d="m335.742 154.61-112.467-64.267c-4.641-2.653-10.345-2.634-14.971.05-4.625 2.684-7.471 7.626-7.471 12.974v128.533c0 5.347 2.846 10.29 7.471 12.974s10.33 2.703 14.971.05l112.466-64.267c4.674-2.67 7.558-7.641 7.558-13.023s-2.883-10.354-7.557-13.024z" fill="#f0f1f3"/><path d="m200.833 231.9c0 5.347 2.846 10.29 7.471 12.974s10.33 2.703 14.971.05l112.466-64.267c4.674-2.67 7.558-7.641 7.558-13.023h-142.466z" fill="#dfe3ec"/></g><path d="m265.1 416.666v17.134h-17.133v30h17.133v33.2c0 8.284 6.716 15 15 15s15-6.716 15-15v-80.333c0-25.989-21.144-47.133-47.133-47.133v30c9.447-.001 17.133 7.685 17.133 17.132z" fill="#212d49"/></g></svg>